<?xml version="1.0" encoding="iso-8859-1"?>
<!-- Generator: Adobe Illustrator 19.0.0, SVG Export Plug-In . SVG Version: 6.00 Build 0)  -->
<svg version="1.1" id="Capa_1" xmlns="http://www.w3.org/2000/svg" xmlns:xlink="http://www.w3.org/1999/xlink" x="0px" y="0px"
	 viewBox="0 0 267.3 267.3" style="enable-background:new 0 0 267.3 267.3;" xml:space="preserve">
<g>
	<path style="fill:#FCF8CD;" d="M20,247.3c3.6,3.6,5.6,8.4,6.4,13.2l69.6-18c10-10,10-25.6,0-35.6s-25.6-10-35.6,0
		c10-10,10-25.6,0-35.6s-25.6-10-35.6,0l-18,69.6C11.6,241.7,16.4,243.7,20,247.3"/>
	<path style="fill:#556677;" d="M26.4,260.5c-0.4-5.2-2.8-9.6-6.4-13.2c-3.6-3.6-8.4-5.6-13.2-6.4L0,267.3L26.4,260.5z"/>
	<path style="fill:#FACE5A;" d="M235.6,102.9L200,67.3l-35.6-35.6L24.8,171.3c10-10,25.6-10,35.6,0s10,25.6,0,35.6
		c10-10,25.6-10,35.6,0s10,25.6,0,35.6L235.6,102.9z"/>
	<path style="fill:#FCF8CD;" d="M164.4,31.7L200,67.3l35.6,35.6L254,84.5c6.8-6.8,6.8-18,0-24.4l-7.2-7.2l-32.4-32.4l-7.2-7.2
		c-6.8-6.8-18-6.8-24.4,0L164.4,31.7z"/>
	<path style="fill:#DC5555;" d="M214.4,20.5l32.4,32.4l16-16c6-6,6-16.4,0-22.4l-10-10c-6-6-16.4-6-22.4,0L214.4,20.5z"/>
	<path style="fill:#FFFCE9;" d="M29.6,189.7c3.6-14,18.8-21.6,31.6-15.2c0.8,0.4,1.6,0.8,2,1.2c-0.8-1.6-2-2.8-3.2-4.4
		c-10-10-25.6-10-35.6,0l-18,69.6c3.2,0.4,6.4,1.2,9.2,3.2L29.6,189.7z"/>
	<path style="fill:#5C707F;" d="M15.6,244.1L15.6,244.1c-2.4-1.6-5.6-2.8-8.8-3.2L0,267.3l10.4-2.8L15.6,244.1z"/>
	<path style="fill:#F9D482;" d="M54.8,167.3L177.2,44.9l-12.8-12.8L24.8,171.3C32.8,163.3,45.2,161.7,54.8,167.3z"/>
	<path style="fill:#FFFCE9;" d="M195.6,26.5c6.8-6.8,18-6.8,24.4,0l7.2,7.2l26.4,26.4l0,0l-7.2-7.2L214,20.5l-7.2-7.2
		c-6.8-6.8-18-6.8-24.4,0L164,31.7l12.8,12.8L195.6,26.5z"/>
	<path style="fill:#E06969;" d="M236.8,10.9c6-6,16.4-6,22.4,0l-6.4-6.4c-6-6-16.4-6-22.4,0l-16,16l6.4,6.4L236.8,10.9z"/>
</g>
<g>
</g>
<g>
</g>
<g>
</g>
<g>
</g>
<g>
</g>
<g>
</g>
<g>
</g>
<g>
</g>
<g>
</g>
<g>
</g>
<g>
</g>
<g>
</g>
<g>
</g>
<g>
</g>
<g>
</g>
</svg>
